<svg xmlns="http://www.w3.org/2000/svg" xmlns:xlink="http://www.w3.org/1999/xlink" width="500" zoomAndPan="magnify" viewBox="0 0 375 374.999991" height="500" preserveAspectRatio="xMidYMid meet" version="1.0"><defs><g/><clipPath id="8a823820f3"><path d="M 0.238281 10 L 42 10 L 42 65 L 0.238281 65 Z M 0.238281 10 " clip-rule="nonzero"/></clipPath><clipPath id="9e39852d0c"><rect x="0" width="270" y="0" height="80"/></clipPath><clipPath id="02fa749b56"><rect x="0" width="249" y="0" height="80"/></clipPath></defs><g transform="matrix(1, 0, 0, 1, 54, 119)"><g clip-path="url(#9e39852d0c)"><g clip-path="url(#8a823820f3)"><g fill="#692e54" fill-opacity="1"><g transform="translate(0.520719, 63.572374)"><g><path d="M 39.796875 -3.046875 C 39.742188 -2.992188 39.703125 -3.019531 39.671875 -3.125 C 39.648438 -3.226562 39.664062 -3.304688 39.71875 -3.359375 C 40.34375 -3.617188 40.707031 -4.085938 40.8125 -4.765625 C 40.914062 -5.441406 40.863281 -6.191406 40.65625 -7.015625 C 40.445312 -7.847656 40.195312 -8.640625 39.90625 -9.390625 C 39.625 -10.148438 39.40625 -10.710938 39.25 -11.078125 C 38.113281 -14.253906 36.6875 -17.234375 34.96875 -20.015625 C 33.25 -22.796875 31.242188 -25.4375 28.953125 -27.9375 C 29.523438 -27.207031 30.265625 -26.128906 31.171875 -24.703125 C 32.085938 -23.273438 33.039062 -21.6875 34.03125 -19.9375 C 35.019531 -18.195312 35.957031 -16.425781 36.84375 -14.625 C 37.726562 -12.832031 38.46875 -11.171875 39.0625 -9.640625 C 39.65625 -8.109375 39.976562 -6.898438 40.03125 -6.015625 C 40.132812 -4.972656 39.847656 -4.019531 39.171875 -3.15625 C 38.503906 -2.300781 37.570312 -1.875 36.375 -1.875 C 34.707031 -1.875 33.535156 -2.601562 32.859375 -4.0625 C 32.492188 -4.738281 32.3125 -5.46875 32.3125 -6.25 C 30.851562 -9.15625 29.132812 -11.9375 27.15625 -14.59375 C 25.175781 -17.25 23.125 -19.75 21 -22.09375 C 20.0625 -23.125 19.109375 -24.144531 18.140625 -25.15625 C 17.179688 -26.175781 16.128906 -27.101562 14.984375 -27.9375 L 13.734375 -27.46875 C 13.367188 -27.3125 13.03125 -27.164062 12.71875 -27.03125 C 12.40625 -26.90625 12.117188 -26.789062 11.859375 -26.6875 C 12.273438 -22.320312 12.742188 -17.976562 13.265625 -13.65625 C 13.367188 -12.820312 13.507812 -11.972656 13.6875 -11.109375 C 13.875 -10.253906 14.046875 -9.382812 14.203125 -8.5 C 14.410156 -7.78125 14.65625 -6.988281 14.9375 -6.125 C 15.226562 -5.269531 15.453125 -4.398438 15.609375 -3.515625 C 15.710938 -3.203125 15.722656 -2.875 15.640625 -2.53125 C 15.566406 -2.195312 15.398438 -1.898438 15.140625 -1.640625 C 13.160156 0.0234375 11.023438 0.441406 8.734375 -0.390625 C 7.859375 -0.285156 7.003906 -0.476562 6.171875 -0.96875 C 5.335938 -1.46875 4.710938 -2.132812 4.296875 -2.96875 C 3.828125 -4.0625 3.539062 -5.191406 3.4375 -6.359375 C 3.332031 -7.523438 3.226562 -8.679688 3.125 -9.828125 C 2.8125 -12.484375 2.507812 -15.140625 2.21875 -17.796875 C 1.9375 -20.453125 1.691406 -23.101562 1.484375 -25.75 C 1.273438 -28.40625 1.101562 -31.0625 0.96875 -33.71875 C 0.84375 -36.375 0.726562 -39.050781 0.625 -41.75 C 0.625 -42.476562 0.609375 -43.191406 0.578125 -43.890625 C 0.554688 -44.597656 0.546875 -45.289062 0.546875 -45.96875 C 0.492188 -46.695312 0.554688 -47.4375 0.734375 -48.1875 C 0.921875 -48.945312 1.429688 -49.429688 2.265625 -49.640625 C 2.316406 -49.796875 2.378906 -49.9375 2.453125 -50.0625 C 2.535156 -50.195312 2.601562 -50.34375 2.65625 -50.5 C 3.175781 -51.4375 3.890625 -52.019531 4.796875 -52.25 C 5.710938 -52.488281 6.609375 -52.425781 7.484375 -52.0625 C 8.367188 -51.695312 9.046875 -51.109375 9.515625 -50.296875 C 9.984375 -49.492188 10.035156 -48.570312 9.671875 -47.53125 C 9.460938 -46.75 9.34375 -45.898438 9.3125 -44.984375 C 9.289062 -44.078125 9.253906 -43.179688 9.203125 -42.296875 L 8.96875 -35.28125 C 9.226562 -35.539062 9.4375 -35.695312 9.59375 -35.75 C 9.75 -37.414062 9.929688 -39.078125 10.140625 -40.734375 C 10.347656 -42.398438 10.582031 -44.039062 10.84375 -45.65625 C 10.84375 -45.707031 10.851562 -45.71875 10.875 -45.6875 C 10.90625 -45.664062 10.921875 -45.65625 10.921875 -45.65625 L 10.921875 -45.109375 C 10.972656 -43.648438 11.023438 -42.21875 11.078125 -40.8125 C 11.128906 -39.414062 11.179688 -37.988281 11.234375 -36.53125 C 14.460938 -37.9375 17.882812 -39.519531 21.5 -41.28125 C 25.113281 -43.050781 28.429688 -44.820312 31.453125 -46.59375 C 32.078125 -46.957031 32.789062 -47.382812 33.59375 -47.875 C 34.40625 -48.375 35.203125 -48.492188 35.984375 -48.234375 C 36.609375 -48.078125 37.078125 -47.738281 37.390625 -47.21875 C 37.703125 -46.695312 37.859375 -46.125 37.859375 -45.5 L 38.09375 -45.734375 C 38.507812 -46.046875 38.910156 -46.046875 39.296875 -45.734375 C 39.679688 -45.421875 39.742188 -45.03125 39.484375 -44.5625 C 38.140625 -42.007812 36.28125 -39.875 33.90625 -38.15625 C 31.539062 -36.445312 29.109375 -34.890625 26.609375 -33.484375 L 24.578125 -32.390625 C 24.785156 -32.234375 24.96875 -32.078125 25.125 -31.921875 C 25.28125 -31.765625 25.460938 -31.609375 25.671875 -31.453125 C 25.617188 -31.710938 25.75 -31.945312 26.0625 -32.15625 C 26.375 -32.363281 26.632812 -32.335938 26.84375 -32.078125 C 29.238281 -29.835938 31.375 -27.40625 33.25 -24.78125 C 35.125 -22.15625 36.710938 -19.359375 38.015625 -16.390625 C 38.679688 -14.929688 39.273438 -13.457031 39.796875 -11.96875 C 40.316406 -10.488281 40.757812 -9 41.125 -7.5 C 41.28125 -6.71875 41.332031 -5.84375 41.28125 -4.875 C 41.226562 -3.914062 40.734375 -3.304688 39.796875 -3.046875 Z M 39.796875 -3.046875 "/></g></g></g></g><g fill="#692e54" fill-opacity="1"><g transform="translate(39.539407, 63.572374)"><g><path d="M 1.09375 -45.03125 C 0.9375 -45.550781 0.988281 -46.070312 1.25 -46.59375 C 1.507812 -47.113281 1.769531 -47.554688 2.03125 -47.921875 C 2.550781 -48.703125 3.203125 -49.351562 3.984375 -49.875 C 4.191406 -50.082031 4.347656 -50.210938 4.453125 -50.265625 C 5.492188 -50.992188 6.597656 -51.539062 7.765625 -51.90625 C 8.929688 -52.269531 10.113281 -52.296875 11.3125 -51.984375 C 12.351562 -51.722656 13.265625 -51.289062 14.046875 -50.6875 C 14.828125 -50.09375 15.398438 -49.273438 15.765625 -48.234375 C 15.921875 -47.816406 15.894531 -47.425781 15.6875 -47.0625 C 15.476562 -46.695312 15.21875 -46.382812 14.90625 -46.125 C 13.601562 -45.1875 12.222656 -44.5625 10.765625 -44.25 C 10.296875 -43.726562 9.671875 -43.347656 8.890625 -43.109375 C 8.117188 -42.878906 7.367188 -42.765625 6.640625 -42.765625 C 6.015625 -42.765625 5.398438 -42.816406 4.796875 -42.921875 C 4.203125 -43.023438 3.617188 -43.179688 3.046875 -43.390625 C 2.679688 -43.492188 2.289062 -43.703125 1.875 -44.015625 C 1.457031 -44.328125 1.195312 -44.664062 1.09375 -45.03125 Z M 6.328125 -43.15625 C 7.460938 -43.15625 8.210938 -43.269531 8.578125 -43.5 C 8.941406 -43.738281 9.097656 -43.859375 9.046875 -43.859375 C 8.578125 -43.753906 8.054688 -43.675781 7.484375 -43.625 C 6.921875 -43.570312 6.195312 -43.625 5.3125 -43.78125 C 4.164062 -44.039062 3.394531 -44.5625 3 -45.34375 C 2.613281 -46.125 2.601562 -46.957031 2.96875 -47.84375 C 2.601562 -47.425781 2.265625 -46.929688 1.953125 -46.359375 C 1.796875 -45.992188 1.71875 -45.664062 1.71875 -45.375 C 1.71875 -45.09375 1.875 -44.820312 2.1875 -44.5625 C 2.707031 -44.144531 3.203125 -43.859375 3.671875 -43.703125 C 4.453125 -43.441406 5.335938 -43.257812 6.328125 -43.15625 Z M 14.4375 -4.140625 C 14.070312 -3.515625 13.523438 -3.070312 12.796875 -2.8125 C 12.847656 -2.550781 12.820312 -2.273438 12.71875 -1.984375 C 12.613281 -1.703125 12.378906 -1.484375 12.015625 -1.328125 C 11.078125 -0.859375 10.078125 -0.726562 9.015625 -0.9375 C 7.953125 -1.144531 7.054688 -1.613281 6.328125 -2.34375 L 6.171875 -2.578125 C 5.804688 -2.734375 5.414062 -2.96875 5 -3.28125 C 4.164062 -4.0625 3.65625 -5 3.46875 -6.09375 C 3.289062 -7.1875 3.125 -8.273438 2.96875 -9.359375 C 2.601562 -12.273438 2.328125 -15.175781 2.140625 -18.0625 C 1.960938 -20.957031 1.898438 -23.859375 1.953125 -26.765625 C 1.953125 -28.171875 1.953125 -29.585938 1.953125 -31.015625 C 1.953125 -32.453125 2.03125 -33.875 2.1875 -35.28125 C 2.289062 -36.007812 2.472656 -36.722656 2.734375 -37.421875 C 2.992188 -38.128906 3.359375 -38.710938 3.828125 -39.171875 C 3.929688 -39.328125 4.035156 -39.46875 4.140625 -39.59375 C 4.242188 -39.726562 4.347656 -39.847656 4.453125 -39.953125 C 5.023438 -40.316406 5.765625 -40.769531 6.671875 -41.3125 C 7.578125 -41.863281 8.472656 -42.175781 9.359375 -42.25 C 10.242188 -42.332031 10.894531 -41.851562 11.3125 -40.8125 C 11.570312 -40.863281 11.832031 -40.8125 12.09375 -40.65625 C 12.351562 -40.5 12.507812 -40.238281 12.5625 -39.875 C 12.5625 -38.425781 12.535156 -37 12.484375 -35.59375 C 12.429688 -34.1875 12.40625 -32.753906 12.40625 -31.296875 C 12.40625 -29.890625 12.429688 -28.46875 12.484375 -27.03125 C 12.535156 -25.601562 12.585938 -24.164062 12.640625 -22.71875 C 12.640625 -22.457031 12.648438 -22.15625 12.671875 -21.8125 C 12.703125 -21.476562 12.742188 -21.128906 12.796875 -20.765625 C 12.847656 -20.816406 12.910156 -20.609375 12.984375 -20.140625 C 13.066406 -19.671875 13.132812 -19.210938 13.1875 -18.765625 C 13.238281 -18.328125 13.289062 -18.109375 13.34375 -18.109375 C 13.289062 -19.984375 13.25 -22.0625 13.21875 -24.34375 C 13.195312 -26.632812 13.195312 -28.925781 13.21875 -31.21875 C 13.25 -33.507812 13.316406 -35.566406 13.421875 -37.390625 C 13.421875 -37.492188 13.507812 -37.554688 13.6875 -37.578125 C 13.875 -37.609375 13.96875 -37.597656 13.96875 -37.546875 C 13.8125 -31.972656 13.890625 -26.414062 14.203125 -20.875 C 14.515625 -15.332031 15.035156 -9.78125 15.765625 -4.21875 C 15.816406 -3.851562 15.632812 -3.65625 15.21875 -3.625 C 14.800781 -3.601562 14.539062 -3.773438 14.4375 -4.140625 Z M 5.78125 -35.984375 C 5.207031 -34.210938 4.878906 -32.347656 4.796875 -30.390625 C 4.722656 -28.441406 4.632812 -26.554688 4.53125 -24.734375 L 4.53125 -23.953125 C 4.53125 -23.898438 4.53125 -23.875 4.53125 -23.875 C 4.53125 -23.875 4.53125 -23.847656 4.53125 -23.796875 C 4.632812 -22.867188 4.738281 -21.9375 4.84375 -21 C 4.945312 -20.0625 5.050781 -19.125 5.15625 -18.1875 L 5.390625 -18.1875 C 5.390625 -19.957031 5.375 -21.710938 5.34375 -23.453125 C 5.320312 -25.191406 5.335938 -26.945312 5.390625 -28.71875 C 5.390625 -30.070312 5.453125 -31.4375 5.578125 -32.8125 C 5.710938 -34.195312 5.988281 -35.515625 6.40625 -36.765625 L 6.328125 -36.765625 C 5.960938 -36.503906 5.78125 -36.242188 5.78125 -35.984375 Z M 5.78125 -35.984375 "/></g></g></g><g fill="#692e54" fill-opacity="1"><g transform="translate(55.849225, 63.572374)"><g><path d="M 37.625 -29.578125 C 38.914062 -27.597656 39.519531 -25.28125 39.4375 -22.625 C 39.363281 -19.976562 39.046875 -17.5625 38.484375 -15.375 C 37.960938 -13.394531 37.207031 -11.441406 36.21875 -9.515625 C 35.226562 -7.597656 33.898438 -5.988281 32.234375 -4.6875 C 29.578125 -2.550781 26.46875 -1.128906 22.90625 -0.421875 C 19.34375 0.273438 15.921875 -0.0234375 12.640625 -1.328125 C 9.460938 -2.628906 6.691406 -4.617188 4.328125 -7.296875 C 1.960938 -9.972656 0.414062 -13.03125 -0.3125 -16.46875 C -0.46875 -17.300781 -0.597656 -18.144531 -0.703125 -19 C -0.804688 -19.863281 -0.859375 -20.710938 -0.859375 -21.546875 C -0.804688 -24.398438 -0.441406 -27.191406 0.234375 -29.921875 C 0.910156 -32.660156 2.132812 -35.148438 3.90625 -37.390625 C 5.101562 -38.941406 6.492188 -40.523438 8.078125 -42.140625 C 9.660156 -43.753906 11.257812 -45.132812 12.875 -46.28125 C 14.382812 -47.375 15.945312 -48.390625 17.5625 -49.328125 C 18.34375 -49.796875 19.203125 -50.160156 20.140625 -50.421875 C 21.078125 -50.679688 22.015625 -50.757812 22.953125 -50.65625 C 23.773438 -50.601562 24.421875 -50.316406 24.890625 -49.796875 C 25.359375 -49.273438 25.59375 -48.675781 25.59375 -48 C 25.851562 -47.53125 25.984375 -47.046875 25.984375 -46.546875 C 25.984375 -46.054688 25.957031 -45.523438 25.90625 -44.953125 C 25.851562 -44.640625 25.828125 -43.988281 25.828125 -43 C 25.828125 -42.007812 25.828125 -40.890625 25.828125 -39.640625 C 25.828125 -38.398438 25.835938 -37.21875 25.859375 -36.09375 C 25.890625 -34.976562 25.90625 -34.109375 25.90625 -33.484375 L 26.140625 -26.0625 C 26.140625 -25.382812 26.148438 -24.722656 26.171875 -24.078125 C 26.203125 -23.429688 26.242188 -22.796875 26.296875 -22.171875 C 26.296875 -21.648438 26.304688 -21.113281 26.328125 -20.5625 C 26.359375 -20.019531 26.320312 -19.488281 26.21875 -18.96875 C 26.164062 -18.757812 26.019531 -18.601562 25.78125 -18.5 C 25.550781 -18.394531 25.332031 -18.394531 25.125 -18.5 C 24.863281 -18.707031 24.707031 -18.835938 24.65625 -18.890625 C 24.550781 -18.835938 24.445312 -18.820312 24.34375 -18.84375 C 24.238281 -18.875 24.132812 -18.890625 24.03125 -18.890625 C 23.519531 -19.046875 23.09375 -19.304688 22.75 -19.671875 C 22.414062 -20.035156 22.117188 -20.453125 21.859375 -20.921875 C 21.703125 -21.179688 21.582031 -21.441406 21.5 -21.703125 C 21.425781 -21.960938 21.335938 -22.195312 21.234375 -22.40625 L 21 -22.40625 L 21 -22.171875 C 21.257812 -21.285156 21.675781 -20.359375 22.25 -19.390625 C 22.820312 -18.429688 23.675781 -18.054688 24.8125 -18.265625 C 25.382812 -18.367188 25.785156 -18.238281 26.015625 -17.875 C 26.253906 -17.507812 26.304688 -17.117188 26.171875 -16.703125 C 26.046875 -16.285156 25.695312 -16.050781 25.125 -16 C 24.132812 -15.894531 23.160156 -16.128906 22.203125 -16.703125 C 21.242188 -17.273438 20.554688 -18.03125 20.140625 -18.96875 C 19.617188 -20.164062 19.316406 -21.398438 19.234375 -22.671875 C 19.160156 -23.941406 19.097656 -25.203125 19.046875 -26.453125 L 18.578125 -41.515625 C 18.421875 -41.410156 18.265625 -41.289062 18.109375 -41.15625 C 17.953125 -41.03125 17.769531 -40.914062 17.5625 -40.8125 C 14.90625 -38.789062 12.820312 -36.453125 11.3125 -33.796875 C 9.800781 -31.140625 8.734375 -28.144531 8.109375 -24.8125 C 8.054688 -24.5 8.015625 -24.300781 7.984375 -24.21875 C 7.960938 -24.144531 7.953125 -23.976562 7.953125 -23.71875 C 7.898438 -23.507812 7.875 -23.300781 7.875 -23.09375 C 7.875 -22.894531 7.875 -22.691406 7.875 -22.484375 C 7.820312 -21.546875 7.875 -20.632812 8.03125 -19.75 C 8.1875 -18.863281 8.394531 -17.976562 8.65625 -17.09375 C 9.382812 -14.800781 10.476562 -12.71875 11.9375 -10.84375 C 13.394531 -8.96875 15.398438 -7.953125 17.953125 -7.796875 C 18.109375 -7.796875 18.273438 -7.785156 18.453125 -7.765625 C 18.640625 -7.742188 18.8125 -7.734375 18.96875 -7.734375 C 21.976562 -7.828125 24.550781 -8.8125 26.6875 -10.6875 C 27.570312 -11.519531 28.25 -12.378906 28.71875 -13.265625 C 29.445312 -14.515625 29.914062 -15.851562 30.125 -17.28125 C 30.332031 -18.71875 30.410156 -20.113281 30.359375 -21.46875 C 30.304688 -22.09375 30.253906 -22.703125 30.203125 -23.296875 C 30.148438 -23.890625 29.992188 -24.445312 29.734375 -24.96875 C 29.210938 -26.113281 29.066406 -27.269531 29.296875 -28.4375 C 29.535156 -29.613281 30.226562 -30.539062 31.375 -31.21875 C 32.46875 -31.894531 33.613281 -32.050781 34.8125 -31.6875 C 36.007812 -31.320312 36.945312 -30.617188 37.625 -29.578125 Z M 20.140625 -42.609375 C 19.773438 -42.296875 19.359375 -42.007812 18.890625 -41.75 C 18.992188 -40.445312 19.125 -39.144531 19.28125 -37.84375 C 19.4375 -36.550781 19.566406 -35.253906 19.671875 -33.953125 L 20.0625 -33.953125 C 20.007812 -35.410156 19.984375 -36.851562 19.984375 -38.28125 C 19.984375 -39.707031 20.035156 -41.148438 20.140625 -42.609375 Z M 29.65625 -25.125 C 29.65625 -25.175781 29.640625 -25.203125 29.609375 -25.203125 C 29.585938 -25.203125 29.578125 -25.226562 29.578125 -25.28125 C 29.578125 -25.28125 29.585938 -25.265625 29.609375 -25.234375 C 29.640625 -25.210938 29.65625 -25.175781 29.65625 -25.125 Z M 29.734375 -24.96875 C 29.679688 -25.019531 29.65625 -25.070312 29.65625 -25.125 C 29.65625 -25.070312 29.664062 -25.046875 29.6875 -25.046875 C 29.71875 -25.046875 29.734375 -25.019531 29.734375 -24.96875 Z M 29.734375 -24.96875 "/></g></g></g><g fill="#692e54" fill-opacity="1"><g transform="translate(96.428663, 63.572374)"><g><path d="M 39.796875 -3.046875 C 39.742188 -2.992188 39.703125 -3.019531 39.671875 -3.125 C 39.648438 -3.226562 39.664062 -3.304688 39.71875 -3.359375 C 40.34375 -3.617188 40.707031 -4.085938 40.8125 -4.765625 C 40.914062 -5.441406 40.863281 -6.191406 40.65625 -7.015625 C 40.445312 -7.847656 40.195312 -8.640625 39.90625 -9.390625 C 39.625 -10.148438 39.40625 -10.710938 39.25 -11.078125 C 38.113281 -14.253906 36.6875 -17.234375 34.96875 -20.015625 C 33.25 -22.796875 31.242188 -25.4375 28.953125 -27.9375 C 29.523438 -27.207031 30.265625 -26.128906 31.171875 -24.703125 C 32.085938 -23.273438 33.039062 -21.6875 34.03125 -19.9375 C 35.019531 -18.195312 35.957031 -16.425781 36.84375 -14.625 C 37.726562 -12.832031 38.46875 -11.171875 39.0625 -9.640625 C 39.65625 -8.109375 39.976562 -6.898438 40.03125 -6.015625 C 40.132812 -4.972656 39.847656 -4.019531 39.171875 -3.15625 C 38.503906 -2.300781 37.570312 -1.875 36.375 -1.875 C 34.707031 -1.875 33.535156 -2.601562 32.859375 -4.0625 C 32.492188 -4.738281 32.3125 -5.46875 32.3125 -6.25 C 30.851562 -9.15625 29.132812 -11.9375 27.15625 -14.59375 C 25.175781 -17.25 23.125 -19.75 21 -22.09375 C 20.0625 -23.125 19.109375 -24.144531 18.140625 -25.15625 C 17.179688 -26.175781 16.128906 -27.101562 14.984375 -27.9375 L 13.734375 -27.46875 C 13.367188 -27.3125 13.03125 -27.164062 12.71875 -27.03125 C 12.40625 -26.90625 12.117188 -26.789062 11.859375 -26.6875 C 12.273438 -22.320312 12.742188 -17.976562 13.265625 -13.65625 C 13.367188 -12.820312 13.507812 -11.972656 13.6875 -11.109375 C 13.875 -10.253906 14.046875 -9.382812 14.203125 -8.5 C 14.410156 -7.78125 14.65625 -6.988281 14.9375 -6.125 C 15.226562 -5.269531 15.453125 -4.398438 15.609375 -3.515625 C 15.710938 -3.203125 15.722656 -2.875 15.640625 -2.53125 C 15.566406 -2.195312 15.398438 -1.898438 15.140625 -1.640625 C 13.160156 0.0234375 11.023438 0.441406 8.734375 -0.390625 C 7.859375 -0.285156 7.003906 -0.476562 6.171875 -0.96875 C 5.335938 -1.46875 4.710938 -2.132812 4.296875 -2.96875 C 3.828125 -4.0625 3.539062 -5.191406 3.4375 -6.359375 C 3.332031 -7.523438 3.226562 -8.679688 3.125 -9.828125 C 2.8125 -12.484375 2.507812 -15.140625 2.21875 -17.796875 C 1.9375 -20.453125 1.691406 -23.101562 1.484375 -25.75 C 1.273438 -28.40625 1.101562 -31.0625 0.96875 -33.71875 C 0.84375 -36.375 0.726562 -39.050781 0.625 -41.75 C 0.625 -42.476562 0.609375 -43.191406 0.578125 -43.890625 C 0.554688 -44.597656 0.546875 -45.289062 0.546875 -45.96875 C 0.492188 -46.695312 0.554688 -47.4375 0.734375 -48.1875 C 0.921875 -48.945312 1.429688 -49.429688 2.265625 -49.640625 C 2.316406 -49.796875 2.378906 -49.9375 2.453125 -50.0625 C 2.535156 -50.195312 2.601562 -50.34375 2.65625 -50.5 C 3.175781 -51.4375 3.890625 -52.019531 4.796875 -52.25 C 5.710938 -52.488281 6.609375 -52.425781 7.484375 -52.0625 C 8.367188 -51.695312 9.046875 -51.109375 9.515625 -50.296875 C 9.984375 -49.492188 10.035156 -48.570312 9.671875 -47.53125 C 9.460938 -46.75 9.34375 -45.898438 9.3125 -44.984375 C 9.289062 -44.078125 9.253906 -43.179688 9.203125 -42.296875 L 8.96875 -35.28125 C 9.226562 -35.539062 9.4375 -35.695312 9.59375 -35.75 C 9.75 -37.414062 9.929688 -39.078125 10.140625 -40.734375 C 10.347656 -42.398438 10.582031 -44.039062 10.84375 -45.65625 C 10.84375 -45.707031 10.851562 -45.71875 10.875 -45.6875 C 10.90625 -45.664062 10.921875 -45.65625 10.921875 -45.65625 L 10.921875 -45.109375 C 10.972656 -43.648438 11.023438 -42.21875 11.078125 -40.8125 C 11.128906 -39.414062 11.179688 -37.988281 11.234375 -36.53125 C 14.460938 -37.9375 17.882812 -39.519531 21.5 -41.28125 C 25.113281 -43.050781 28.429688 -44.820312 31.453125 -46.59375 C 32.078125 -46.957031 32.789062 -47.382812 33.59375 -47.875 C 34.40625 -48.375 35.203125 -48.492188 35.984375 -48.234375 C 36.609375 -48.078125 37.078125 -47.738281 37.390625 -47.21875 C 37.703125 -46.695312 37.859375 -46.125 37.859375 -45.5 L 38.09375 -45.734375 C 38.507812 -46.046875 38.910156 -46.046875 39.296875 -45.734375 C 39.679688 -45.421875 39.742188 -45.03125 39.484375 -44.5625 C 38.140625 -42.007812 36.28125 -39.875 33.90625 -38.15625 C 31.539062 -36.445312 29.109375 -34.890625 26.609375 -33.484375 L 24.578125 -32.390625 C 24.785156 -32.234375 24.96875 -32.078125 25.125 -31.921875 C 25.28125 -31.765625 25.460938 -31.609375 25.671875 -31.453125 C 25.617188 -31.710938 25.75 -31.945312 26.0625 -32.15625 C 26.375 -32.363281 26.632812 -32.335938 26.84375 -32.078125 C 29.238281 -29.835938 31.375 -27.40625 33.25 -24.78125 C 35.125 -22.15625 36.710938 -19.359375 38.015625 -16.390625 C 38.679688 -14.929688 39.273438 -13.457031 39.796875 -11.96875 C 40.316406 -10.488281 40.757812 -9 41.125 -7.5 C 41.28125 -6.71875 41.332031 -5.84375 41.28125 -4.875 C 41.226562 -3.914062 40.734375 -3.304688 39.796875 -3.046875 Z M 39.796875 -3.046875 "/></g></g></g><g fill="#692e54" fill-opacity="1"><g transform="translate(135.447351, 63.572374)"><g><path d="M 35.125 -35.984375 C 34.445312 -35.929688 33.804688 -35.984375 33.203125 -36.140625 C 32.609375 -36.296875 32.023438 -36.53125 31.453125 -36.84375 L 31.21875 -36.84375 C 31.007812 -36.894531 30.722656 -36.921875 30.359375 -36.921875 L 25.4375 -37.390625 C 23.78125 -37.546875 22.09375 -37.726562 20.375 -37.9375 C 18.65625 -38.144531 16.960938 -38.40625 15.296875 -38.71875 C 14.671875 -38.820312 13.992188 -38.945312 13.265625 -39.09375 C 12.535156 -39.25 11.78125 -39.429688 11 -39.640625 C 11.101562 -39.128906 11.296875 -38.328125 11.578125 -37.234375 C 11.867188 -36.140625 12.144531 -35.097656 12.40625 -34.109375 C 12.664062 -33.117188 12.820312 -32.46875 12.875 -32.15625 L 12.953125 -32.15625 C 14.148438 -32.257812 15.320312 -32.335938 16.46875 -32.390625 C 17.613281 -32.441406 18.757812 -32.492188 19.90625 -32.546875 C 22.144531 -32.597656 24.367188 -32.582031 26.578125 -32.5 C 28.785156 -32.425781 31.007812 -32.257812 33.25 -32 C 34.394531 -32 35.472656 -31.660156 36.484375 -30.984375 C 37.503906 -30.304688 38.171875 -29.394531 38.484375 -28.25 C 38.742188 -27.3125 38.691406 -26.320312 38.328125 -25.28125 C 37.960938 -24.238281 37.375 -23.378906 36.5625 -22.703125 C 35.757812 -22.035156 34.785156 -21.753906 33.640625 -21.859375 C 28.796875 -22.585938 23.90625 -22.898438 18.96875 -22.796875 C 18.289062 -22.796875 17.625 -22.796875 16.96875 -22.796875 C 16.320312 -22.796875 15.660156 -22.769531 14.984375 -22.71875 C 15.296875 -20.789062 15.582031 -18.863281 15.84375 -16.9375 C 16.101562 -15.007812 16.257812 -13.054688 16.3125 -11.078125 C 16.363281 -9.828125 16.363281 -8.488281 16.3125 -7.0625 C 16.257812 -5.632812 15.984375 -4.320312 15.484375 -3.125 C 14.992188 -1.925781 14.046875 -1.015625 12.640625 -0.390625 C 11.804688 -0.0234375 10.921875 0.015625 9.984375 -0.265625 C 9.046875 -0.554688 8.445312 -1.195312 8.1875 -2.1875 C 7.726562 -3.800781 7.550781 -5.46875 7.65625 -7.1875 C 7.5 -7.644531 7.394531 -8.132812 7.34375 -8.65625 C 7.289062 -9.175781 7.238281 -9.617188 7.1875 -9.984375 C 7.132812 -10.765625 7.054688 -11.53125 6.953125 -12.28125 C 6.847656 -13.039062 6.742188 -13.785156 6.640625 -14.515625 C 6.535156 -15.867188 6.40625 -17.222656 6.25 -18.578125 C 6.09375 -19.929688 5.9375 -21.257812 5.78125 -22.5625 C 5.15625 -22.71875 4.554688 -22.976562 3.984375 -23.34375 C 2.941406 -24.0625 2.238281 -25.003906 1.875 -26.171875 C 1.507812 -27.347656 1.664062 -28.507812 2.34375 -29.65625 C 2.8125 -30.488281 3.515625 -31.113281 4.453125 -31.53125 C 4.140625 -33.300781 3.800781 -35.039062 3.4375 -36.75 C 3.070312 -38.46875 2.628906 -40.160156 2.109375 -41.828125 C 1.847656 -42.554688 1.847656 -43.257812 2.109375 -43.9375 C 1.429688 -44.664062 0.960938 -45.5 0.703125 -46.4375 C 0.441406 -47.375 0.441406 -48.441406 0.703125 -49.640625 C 0.910156 -50.679688 1.585938 -51.382812 2.734375 -51.75 C 3.878906 -52.113281 4.867188 -51.929688 5.703125 -51.203125 C 7.203125 -50.785156 8.71875 -50.394531 10.25 -50.03125 C 11.789062 -49.664062 13.316406 -49.300781 14.828125 -48.9375 C 14.984375 -49.195312 15.164062 -49.300781 15.375 -49.25 C 19.175781 -48.519531 22.894531 -47.972656 26.53125 -47.609375 C 27.46875 -47.503906 28.414062 -47.425781 29.375 -47.375 C 30.34375 -47.320312 31.296875 -47.242188 32.234375 -47.140625 C 33.015625 -47.085938 33.820312 -47.070312 34.65625 -47.09375 C 35.488281 -47.125 36.269531 -47.007812 37 -46.75 L 37.078125 -46.671875 C 38.273438 -46.148438 39.15625 -45.25 39.71875 -43.96875 C 40.289062 -42.695312 40.367188 -41.460938 39.953125 -40.265625 C 39.796875 -39.023438 39.25 -38.015625 38.3125 -37.234375 C 37.382812 -36.453125 36.320312 -36.035156 35.125 -35.984375 Z M 6.953125 -48.9375 C 7.566406 -48.675781 8.445312 -48.476562 9.59375 -48.34375 C 10.738281 -48.21875 11.832031 -48.113281 12.875 -48.03125 C 13.914062 -47.957031 14.539062 -47.894531 14.75 -47.84375 L 16 -47.84375 C 14.539062 -48.257812 12.875 -48.648438 11 -49.015625 C 9.125 -49.378906 7.460938 -49.820312 6.015625 -50.34375 C 6.171875 -50.1875 6.335938 -49.960938 6.515625 -49.671875 C 6.703125 -49.390625 6.847656 -49.144531 6.953125 -48.9375 Z M 6.953125 -48.9375 "/></g></g></g><g fill="#692e54" fill-opacity="1"><g transform="translate(176.807165, 63.572374)"><g><path d="M 34.65625 -2.265625 C 30.226562 -2.578125 25.773438 -2.535156 21.296875 -2.140625 C 16.828125 -1.753906 12.429688 -0.960938 8.109375 0.234375 C 7.179688 0.441406 6.285156 0.234375 5.421875 -0.390625 C 4.566406 -1.015625 4.164062 -1.820312 4.21875 -2.8125 C 4.21875 -3.226562 4.226562 -3.617188 4.25 -3.984375 C 4.28125 -4.347656 4.296875 -4.710938 4.296875 -5.078125 C 4.398438 -6.585938 4.453125 -8.109375 4.453125 -9.640625 C 4.453125 -11.171875 4.476562 -12.691406 4.53125 -14.203125 C 4.320312 -16.023438 4.113281 -17.875 3.90625 -19.75 C 3.695312 -21.625 3.488281 -23.46875 3.28125 -25.28125 C 2.914062 -28.976562 2.5625 -32.671875 2.21875 -36.359375 C 1.882812 -40.054688 1.585938 -43.726562 1.328125 -47.375 C 1.222656 -48.675781 1.640625 -49.648438 2.578125 -50.296875 C 3.515625 -50.953125 4.582031 -51.175781 5.78125 -50.96875 C 6.195312 -50.914062 6.585938 -50.820312 6.953125 -50.6875 C 7.316406 -50.5625 7.648438 -50.421875 7.953125 -50.265625 C 8.316406 -50.210938 8.664062 -50.117188 9 -49.984375 C 9.34375 -49.859375 9.671875 -49.664062 9.984375 -49.40625 C 10.554688 -46.59375 11.023438 -43.78125 11.390625 -40.96875 L 11.78125 -38.71875 C 11.832031 -39.644531 11.832031 -40.71875 11.78125 -41.9375 C 11.726562 -43.164062 11.675781 -44.117188 11.625 -44.796875 C 11.570312 -45.679688 11.46875 -46.539062 11.3125 -47.375 C 11.15625 -48.207031 10.867188 -49.015625 10.453125 -49.796875 C 10.398438 -49.898438 10.425781 -49.976562 10.53125 -50.03125 C 10.632812 -50.082031 10.710938 -50.054688 10.765625 -49.953125 C 11.804688 -48.597656 12.441406 -47.046875 12.671875 -45.296875 C 12.910156 -43.554688 13.132812 -41.851562 13.34375 -40.1875 C 13.550781 -38.21875 13.734375 -36.242188 13.890625 -34.265625 C 14.046875 -32.285156 14.203125 -30.304688 14.359375 -28.328125 C 14.671875 -24.222656 14.90625 -20.085938 15.0625 -15.921875 L 15.296875 -11.9375 C 15.296875 -11.9375 15.304688 -11.9375 15.328125 -11.9375 C 15.359375 -11.9375 15.398438 -11.960938 15.453125 -12.015625 L 15.453125 -11.859375 C 15.453125 -11.753906 15.4375 -11.675781 15.40625 -11.625 C 15.382812 -11.570312 15.375 -11.492188 15.375 -11.390625 C 17.195312 -11.859375 19.066406 -12.207031 20.984375 -12.4375 C 22.910156 -12.675781 24.835938 -12.820312 26.765625 -12.875 C 27.546875 -12.875 28.328125 -12.882812 29.109375 -12.90625 C 29.890625 -12.9375 30.644531 -12.925781 31.375 -12.875 C 31.945312 -12.820312 32.546875 -12.742188 33.171875 -12.640625 C 33.796875 -12.535156 34.34375 -12.300781 34.8125 -11.9375 C 35.226562 -11.625 35.617188 -11.242188 35.984375 -10.796875 C 36.347656 -10.359375 36.53125 -9.851562 36.53125 -9.28125 C 36.53125 -9.070312 36.515625 -8.863281 36.484375 -8.65625 C 36.460938 -8.445312 36.425781 -8.238281 36.375 -8.03125 C 36.53125 -7.832031 36.6875 -7.640625 36.84375 -7.453125 C 37 -7.273438 37.15625 -7.054688 37.3125 -6.796875 C 37.675781 -6.171875 37.78125 -5.492188 37.625 -4.765625 C 37.46875 -4.035156 37.128906 -3.421875 36.609375 -2.921875 C 36.085938 -2.429688 35.4375 -2.210938 34.65625 -2.265625 Z M 2.96875 -44.71875 C 3.070312 -44.039062 3.148438 -43.335938 3.203125 -42.609375 C 3.253906 -41.878906 3.304688 -41.148438 3.359375 -40.421875 C 3.617188 -37.617188 3.828125 -34.820312 3.984375 -32.03125 C 4.140625 -29.25 4.320312 -26.476562 4.53125 -23.71875 L 4.53125 -28.015625 C 4.476562 -29.941406 4.4375 -31.851562 4.40625 -33.75 C 4.382812 -35.65625 4.347656 -37.566406 4.296875 -39.484375 C 4.242188 -40.421875 4.175781 -41.515625 4.09375 -42.765625 C 4.019531 -44.015625 4.140625 -45.132812 4.453125 -46.125 L 4.6875 -48.78125 C 4.789062 -49.039062 4.921875 -49.300781 5.078125 -49.5625 C 4.710938 -49.5625 4.320312 -49.484375 3.90625 -49.328125 C 3.332031 -49.117188 2.976562 -48.738281 2.84375 -48.1875 C 2.71875 -47.644531 2.707031 -47.0625 2.8125 -46.4375 C 2.914062 -45.8125 2.96875 -45.238281 2.96875 -44.71875 Z M 33.328125 0.9375 C 31.191406 0.78125 29.054688 0.6875 26.921875 0.65625 C 24.785156 0.632812 22.65625 0.675781 20.53125 0.78125 C 18.445312 0.832031 16.335938 0.988281 14.203125 1.25 C 13.210938 1.300781 12.171875 1.429688 11.078125 1.640625 C 9.984375 1.847656 8.914062 1.898438 7.875 1.796875 C 7.78125 1.796875 7.78125 1.742188 7.875 1.640625 C 8.757812 1.222656 9.757812 0.9375 10.875 0.78125 C 12 0.625 13.054688 0.46875 14.046875 0.3125 C 15.085938 0.207031 16.085938 0.09375 17.046875 -0.03125 C 18.015625 -0.164062 18.992188 -0.257812 19.984375 -0.3125 C 24.453125 -0.726562 28.898438 -0.882812 33.328125 -0.78125 C 33.847656 -0.726562 34.109375 -0.414062 34.109375 0.15625 C 34.109375 0.726562 33.847656 0.988281 33.328125 0.9375 Z M 33.328125 0.9375 "/></g></g></g><g fill="#692e54" fill-opacity="1"><g transform="translate(213.484728, 63.572374)"><g><path d="M 1.09375 -45.03125 C 0.9375 -45.550781 0.988281 -46.070312 1.25 -46.59375 C 1.507812 -47.113281 1.769531 -47.554688 2.03125 -47.921875 C 2.550781 -48.703125 3.203125 -49.351562 3.984375 -49.875 C 4.191406 -50.082031 4.347656 -50.210938 4.453125 -50.265625 C 5.492188 -50.992188 6.597656 -51.539062 7.765625 -51.90625 C 8.929688 -52.269531 10.113281 -52.296875 11.3125 -51.984375 C 12.351562 -51.722656 13.265625 -51.289062 14.046875 -50.6875 C 14.828125 -50.09375 15.398438 -49.273438 15.765625 -48.234375 C 15.921875 -47.816406 15.894531 -47.425781 15.6875 -47.0625 C 15.476562 -46.695312 15.21875 -46.382812 14.90625 -46.125 C 13.601562 -45.1875 12.222656 -44.5625 10.765625 -44.25 C 10.296875 -43.726562 9.671875 -43.347656 8.890625 -43.109375 C 8.117188 -42.878906 7.367188 -42.765625 6.640625 -42.765625 C 6.015625 -42.765625 5.398438 -42.816406 4.796875 -42.921875 C 4.203125 -43.023438 3.617188 -43.179688 3.046875 -43.390625 C 2.679688 -43.492188 2.289062 -43.703125 1.875 -44.015625 C 1.457031 -44.328125 1.195312 -44.664062 1.09375 -45.03125 Z M 6.328125 -43.15625 C 7.460938 -43.15625 8.210938 -43.269531 8.578125 -43.5 C 8.941406 -43.738281 9.097656 -43.859375 9.046875 -43.859375 C 8.578125 -43.753906 8.054688 -43.675781 7.484375 -43.625 C 6.921875 -43.570312 6.195312 -43.625 5.3125 -43.78125 C 4.164062 -44.039062 3.394531 -44.5625 3 -45.34375 C 2.613281 -46.125 2.601562 -46.957031 2.96875 -47.84375 C 2.601562 -47.425781 2.265625 -46.929688 1.953125 -46.359375 C 1.796875 -45.992188 1.71875 -45.664062 1.71875 -45.375 C 1.71875 -45.09375 1.875 -44.820312 2.1875 -44.5625 C 2.707031 -44.144531 3.203125 -43.859375 3.671875 -43.703125 C 4.453125 -43.441406 5.335938 -43.257812 6.328125 -43.15625 Z M 14.4375 -4.140625 C 14.070312 -3.515625 13.523438 -3.070312 12.796875 -2.8125 C 12.847656 -2.550781 12.820312 -2.273438 12.71875 -1.984375 C 12.613281 -1.703125 12.378906 -1.484375 12.015625 -1.328125 C 11.078125 -0.859375 10.078125 -0.726562 9.015625 -0.9375 C 7.953125 -1.144531 7.054688 -1.613281 6.328125 -2.34375 L 6.171875 -2.578125 C 5.804688 -2.734375 5.414062 -2.96875 5 -3.28125 C 4.164062 -4.0625 3.65625 -5 3.46875 -6.09375 C 3.289062 -7.1875 3.125 -8.273438 2.96875 -9.359375 C 2.601562 -12.273438 2.328125 -15.175781 2.140625 -18.0625 C 1.960938 -20.957031 1.898438 -23.859375 1.953125 -26.765625 C 1.953125 -28.171875 1.953125 -29.585938 1.953125 -31.015625 C 1.953125 -32.453125 2.03125 -33.875 2.1875 -35.28125 C 2.289062 -36.007812 2.472656 -36.722656 2.734375 -37.421875 C 2.992188 -38.128906 3.359375 -38.710938 3.828125 -39.171875 C 3.929688 -39.328125 4.035156 -39.46875 4.140625 -39.59375 C 4.242188 -39.726562 4.347656 -39.847656 4.453125 -39.953125 C 5.023438 -40.316406 5.765625 -40.769531 6.671875 -41.3125 C 7.578125 -41.863281 8.472656 -42.175781 9.359375 -42.25 C 10.242188 -42.332031 10.894531 -41.851562 11.3125 -40.8125 C 11.570312 -40.863281 11.832031 -40.8125 12.09375 -40.65625 C 12.351562 -40.5 12.507812 -40.238281 12.5625 -39.875 C 12.5625 -38.425781 12.535156 -37 12.484375 -35.59375 C 12.429688 -34.1875 12.40625 -32.753906 12.40625 -31.296875 C 12.40625 -29.890625 12.429688 -28.46875 12.484375 -27.03125 C 12.535156 -25.601562 12.585938 -24.164062 12.640625 -22.71875 C 12.640625 -22.457031 12.648438 -22.15625 12.671875 -21.8125 C 12.703125 -21.476562 12.742188 -21.128906 12.796875 -20.765625 C 12.847656 -20.816406 12.910156 -20.609375 12.984375 -20.140625 C 13.066406 -19.671875 13.132812 -19.210938 13.1875 -18.765625 C 13.238281 -18.328125 13.289062 -18.109375 13.34375 -18.109375 C 13.289062 -19.984375 13.25 -22.0625 13.21875 -24.34375 C 13.195312 -26.632812 13.195312 -28.925781 13.21875 -31.21875 C 13.25 -33.507812 13.316406 -35.566406 13.421875 -37.390625 C 13.421875 -37.492188 13.507812 -37.554688 13.6875 -37.578125 C 13.875 -37.609375 13.96875 -37.597656 13.96875 -37.546875 C 13.8125 -31.972656 13.890625 -26.414062 14.203125 -20.875 C 14.515625 -15.332031 15.035156 -9.78125 15.765625 -4.21875 C 15.816406 -3.851562 15.632812 -3.65625 15.21875 -3.625 C 14.800781 -3.601562 14.539062 -3.773438 14.4375 -4.140625 Z M 5.78125 -35.984375 C 5.207031 -34.210938 4.878906 -32.347656 4.796875 -30.390625 C 4.722656 -28.441406 4.632812 -26.554688 4.53125 -24.734375 L 4.53125 -23.953125 C 4.53125 -23.898438 4.53125 -23.875 4.53125 -23.875 C 4.53125 -23.875 4.53125 -23.847656 4.53125 -23.796875 C 4.632812 -22.867188 4.738281 -21.9375 4.84375 -21 C 4.945312 -20.0625 5.050781 -19.125 5.15625 -18.1875 L 5.390625 -18.1875 C 5.390625 -19.957031 5.375 -21.710938 5.34375 -23.453125 C 5.320312 -25.191406 5.335938 -26.945312 5.390625 -28.71875 C 5.390625 -30.070312 5.453125 -31.4375 5.578125 -32.8125 C 5.710938 -34.195312 5.988281 -35.515625 6.40625 -36.765625 L 6.328125 -36.765625 C 5.960938 -36.503906 5.78125 -36.242188 5.78125 -35.984375 Z M 5.78125 -35.984375 "/></g></g></g><g fill="#692e54" fill-opacity="1"><g transform="translate(229.794559, 63.572374)"><g><path d="M 35.4375 -26.53125 C 34.757812 -25.28125 33.804688 -24.359375 32.578125 -23.765625 C 31.359375 -23.171875 30.019531 -22.820312 28.5625 -22.71875 C 27.101562 -22.613281 25.632812 -22.640625 24.15625 -22.796875 C 22.675781 -22.953125 21.335938 -23.132812 20.140625 -23.34375 C 19.773438 -23.4375 19.421875 -23.507812 19.078125 -23.5625 C 18.742188 -23.613281 18.394531 -23.664062 18.03125 -23.71875 C 18.132812 -23.257812 18.238281 -22.796875 18.34375 -22.328125 C 18.445312 -21.859375 18.523438 -21.414062 18.578125 -21 C 18.941406 -19.070312 19.289062 -17.144531 19.625 -15.21875 C 19.96875 -13.289062 20.242188 -11.363281 20.453125 -9.4375 C 20.554688 -8.5 20.582031 -7.550781 20.53125 -6.59375 C 20.476562 -5.632812 20.320312 -4.710938 20.0625 -3.828125 C 19.695312 -2.523438 18.914062 -1.328125 17.71875 -0.234375 C 17.300781 0.128906 16.738281 0.425781 16.03125 0.65625 C 15.332031 0.894531 14.75 0.726562 14.28125 0.15625 C 13.863281 -0.414062 13.613281 -1.050781 13.53125 -1.75 C 13.457031 -2.457031 13.367188 -3.148438 13.265625 -3.828125 C 13.210938 -4.296875 13.144531 -4.773438 13.0625 -5.265625 C 12.988281 -5.765625 12.925781 -6.273438 12.875 -6.796875 C 12.507812 -8.035156 12.195312 -9.359375 11.9375 -10.765625 C 11.988281 -10.347656 12.039062 -9.941406 12.09375 -9.546875 C 12.144531 -9.160156 12.195312 -8.757812 12.25 -8.34375 C 12.351562 -7.675781 12.441406 -7.003906 12.515625 -6.328125 C 12.597656 -5.648438 12.691406 -4.972656 12.796875 -4.296875 C 12.847656 -3.773438 12.910156 -3.238281 12.984375 -2.6875 C 13.066406 -2.144531 13.03125 -1.640625 12.875 -1.171875 C 12.875 -1.117188 12.847656 -1.117188 12.796875 -1.171875 C 12.484375 -1.640625 12.300781 -2.195312 12.25 -2.84375 C 12.195312 -3.5 12.117188 -4.085938 12.015625 -4.609375 L 11.3125 -8.65625 C 11.101562 -10.007812 10.894531 -11.347656 10.6875 -12.671875 C 10.476562 -14.003906 10.269531 -15.347656 10.0625 -16.703125 C 9.800781 -18.316406 9.550781 -19.925781 9.3125 -21.53125 C 9.082031 -23.144531 8.835938 -24.757812 8.578125 -26.375 C 6.085938 -27.363281 3.695312 -28.457031 1.40625 -29.65625 C 1.351562 -29.707031 1.351562 -29.757812 1.40625 -29.8125 C 1.457031 -29.863281 1.507812 -29.863281 1.5625 -29.8125 C 2.707031 -29.289062 3.863281 -28.78125 5.03125 -28.28125 C 6.207031 -27.789062 7.363281 -27.335938 8.5 -26.921875 C 8.445312 -27.179688 8.394531 -27.414062 8.34375 -27.625 C 8.289062 -27.832031 8.238281 -28.039062 8.1875 -28.25 C 7.3125 -28.613281 6.441406 -28.988281 5.578125 -29.375 C 4.722656 -29.769531 3.851562 -30.148438 2.96875 -30.515625 C 2.132812 -30.929688 1.613281 -31.632812 1.40625 -32.625 C 1.195312 -33.613281 1.300781 -34.472656 1.71875 -35.203125 C 2.082031 -35.773438 2.65625 -36.242188 3.4375 -36.609375 C 4.21875 -36.972656 4.945312 -37.023438 5.625 -36.765625 L 6.09375 -36.53125 C 5.625 -38.238281 5.128906 -39.953125 4.609375 -41.671875 C 4.085938 -43.390625 3.539062 -45.082031 2.96875 -46.75 C 2.757812 -47.425781 2.835938 -48.035156 3.203125 -48.578125 C 3.566406 -49.128906 4.035156 -49.507812 4.609375 -49.71875 C 4.554688 -50.082031 4.617188 -50.394531 4.796875 -50.65625 C 4.984375 -50.914062 5.179688 -51.148438 5.390625 -51.359375 C 6.691406 -52.242188 8.109375 -52.539062 9.640625 -52.25 C 11.171875 -51.96875 12.5625 -51.515625 13.8125 -50.890625 C 15.113281 -50.210938 16.375 -49.492188 17.59375 -48.734375 C 18.820312 -47.984375 20.035156 -47.21875 21.234375 -46.4375 C 23.671875 -44.820312 26.046875 -43.09375 28.359375 -41.25 C 30.679688 -39.40625 32.960938 -37.492188 35.203125 -35.515625 C 35.828125 -34.992188 36.085938 -34.394531 35.984375 -33.71875 C 36.453125 -32.9375 36.765625 -32.15625 36.921875 -31.375 C 37.078125 -30.28125 37.007812 -29.34375 36.71875 -28.5625 C 36.4375 -27.78125 36.007812 -27.101562 35.4375 -26.53125 Z M 26.0625 -34.890625 C 24.914062 -35.566406 23.785156 -36.226562 22.671875 -36.875 C 21.554688 -37.53125 20.425781 -38.171875 19.28125 -38.796875 C 18.445312 -39.203125 17.585938 -39.625 16.703125 -40.0625 C 15.816406 -40.507812 14.929688 -40.914062 14.046875 -41.28125 C 14.460938 -39.820312 14.851562 -38.335938 15.21875 -36.828125 C 15.582031 -35.328125 15.921875 -33.820312 16.234375 -32.3125 C 17.953125 -31.738281 19.617188 -31.269531 21.234375 -30.90625 C 22.535156 -30.644531 23.847656 -30.445312 25.171875 -30.3125 C 26.492188 -30.1875 27.804688 -30.175781 29.109375 -30.28125 C 29.367188 -30.28125 29.640625 -30.289062 29.921875 -30.3125 C 30.210938 -30.34375 30.460938 -30.382812 30.671875 -30.4375 L 31.296875 -30.59375 C 31.191406 -30.800781 31.085938 -30.957031 30.984375 -31.0625 C 30.460938 -31.894531 29.734375 -32.609375 28.796875 -33.203125 C 27.859375 -33.804688 26.945312 -34.367188 26.0625 -34.890625 Z M 22.015625 -24.421875 C 21.335938 -24.523438 20.632812 -24.640625 19.90625 -24.765625 C 19.175781 -24.898438 18.445312 -25.046875 17.71875 -25.203125 C 17.769531 -25.097656 17.796875 -24.992188 17.796875 -24.890625 C 17.796875 -24.785156 17.820312 -24.679688 17.875 -24.578125 C 18.03125 -24.523438 18.171875 -24.484375 18.296875 -24.453125 C 18.429688 -24.429688 18.578125 -24.421875 18.734375 -24.421875 C 20.242188 -24.210938 21.789062 -24.015625 23.375 -23.828125 C 24.957031 -23.648438 26.503906 -23.640625 28.015625 -23.796875 L 30.984375 -24.265625 C 30.984375 -24.316406 30.707031 -24.316406 30.15625 -24.265625 C 29.613281 -24.210938 29.34375 -24.210938 29.34375 -24.265625 C 28.039062 -24.109375 26.738281 -24.054688 25.4375 -24.109375 C 24.132812 -24.160156 22.992188 -24.265625 22.015625 -24.421875 Z M 18.109375 -10.6875 C 18.210938 -9.382812 18.25 -8.054688 18.21875 -6.703125 C 18.195312 -5.359375 17.875 -4.085938 17.25 -2.890625 L 17.40625 -2.65625 C 17.71875 -2.8125 17.976562 -2.992188 18.1875 -3.203125 C 18.757812 -4.398438 19.003906 -5.644531 18.921875 -6.9375 C 18.847656 -8.238281 18.679688 -9.539062 18.421875 -10.84375 L 17.953125 -13.265625 C 17.898438 -13.210938 17.898438 -13.03125 17.953125 -12.71875 C 18.003906 -12.40625 18.003906 -12.25 17.953125 -12.25 Z M 18.109375 -10.6875 "/></g></g></g></g></g><g transform="matrix(1, 0, 0, 1, 63, 175)"><g clip-path="url(#02fa749b56)"><g fill="#692e54" fill-opacity="1"><g transform="translate(0.919853, 63.595773)"><g><path d="M 37.390625 -28.328125 C 37.441406 -27.648438 37.53125 -27.007812 37.65625 -26.40625 C 37.789062 -25.8125 37.910156 -25.175781 38.015625 -24.5 C 38.171875 -23.976562 38.117188 -23.472656 37.859375 -22.984375 C 37.597656 -22.492188 37.179688 -22.171875 36.609375 -22.015625 C 35.359375 -21.703125 34.34375 -21.957031 33.5625 -22.78125 C 32.78125 -23.613281 32.191406 -24.707031 31.796875 -26.0625 C 31.410156 -27.414062 31.140625 -28.691406 30.984375 -29.890625 C 30.929688 -29.890625 30.90625 -29.898438 30.90625 -29.921875 C 30.90625 -29.953125 30.878906 -29.96875 30.828125 -29.96875 C 29.679688 -31.632812 28.285156 -33.09375 26.640625 -34.34375 C 25.003906 -35.59375 23.253906 -36.632812 21.390625 -37.46875 C 19.410156 -38.351562 17.378906 -39.023438 15.296875 -39.484375 L 18.5 -36.453125 C 19.75 -35.253906 20.992188 -34.03125 22.234375 -32.78125 C 23.484375 -31.53125 24.679688 -30.253906 25.828125 -28.953125 C 26.972656 -27.753906 28.117188 -26.539062 29.265625 -25.3125 C 30.410156 -24.09375 31.476562 -22.835938 32.46875 -21.546875 C 33.195312 -20.660156 33.820312 -19.722656 34.34375 -18.734375 C 34.863281 -17.742188 35.226562 -16.726562 35.4375 -15.6875 C 35.851562 -14.695312 36.164062 -13.691406 36.375 -12.671875 C 36.582031 -11.660156 36.609375 -10.632812 36.453125 -9.59375 C 36.398438 -7.9375 35.851562 -6.441406 34.8125 -5.109375 C 33.769531 -3.785156 32.46875 -2.734375 30.90625 -1.953125 C 29.34375 -1.171875 27.726562 -0.726562 26.0625 -0.625 L 25.828125 -0.625 C 24.523438 -0.414062 23.160156 -0.375 21.734375 -0.5 C 20.304688 -0.632812 18.96875 -0.882812 17.71875 -1.25 C 16 -1.613281 14.382812 -2.289062 12.875 -3.28125 C 12.71875 -2.601562 12.492188 -1.960938 12.203125 -1.359375 C 11.921875 -0.765625 11.519531 -0.257812 11 0.15625 C 10.632812 0.519531 10.175781 0.703125 9.625 0.703125 C 9.082031 0.703125 8.601562 0.519531 8.1875 0.15625 C 7.78125 -0.257812 7.394531 -0.789062 7.03125 -1.4375 C 6.664062 -2.09375 6.429688 -2.757812 6.328125 -3.4375 C 6.117188 -3.695312 5.945312 -4.007812 5.8125 -4.375 C 5.6875 -4.738281 5.570312 -5.101562 5.46875 -5.46875 C 5.257812 -7.644531 4.929688 -9.828125 4.484375 -12.015625 C 4.046875 -14.203125 3.539062 -16.363281 2.96875 -18.5 C 2.65625 -19.695312 2.40625 -20.914062 2.21875 -22.15625 C 2.039062 -23.40625 1.875 -24.65625 1.71875 -25.90625 C 1.5625 -27 1.414062 -28.128906 1.28125 -29.296875 C 1.15625 -30.472656 1.195312 -31.632812 1.40625 -32.78125 C 1.5625 -33.507812 1.910156 -34.1875 2.453125 -34.8125 C 3.003906 -35.4375 3.671875 -35.800781 4.453125 -35.90625 C 5.390625 -36.007812 6.21875 -35.878906 6.9375 -35.515625 C 7.664062 -35.148438 8.1875 -34.5 8.5 -33.5625 C 9.332031 -31.007812 9.929688 -28.378906 10.296875 -25.671875 C 10.660156 -22.972656 11.285156 -20.320312 12.171875 -17.71875 C 12.535156 -16.78125 12.960938 -15.84375 13.453125 -14.90625 C 13.953125 -13.96875 14.539062 -13.132812 15.21875 -12.40625 C 15.632812 -12.039062 16.050781 -11.648438 16.46875 -11.234375 C 16.882812 -10.816406 17.328125 -10.425781 17.796875 -10.0625 C 18.265625 -9.90625 18.734375 -9.785156 19.203125 -9.703125 C 19.671875 -9.628906 20.140625 -9.566406 20.609375 -9.515625 C 22.222656 -9.359375 23.882812 -9.359375 25.59375 -9.515625 C 26.113281 -9.566406 26.695312 -9.65625 27.34375 -9.78125 C 28 -9.914062 28.484375 -10.21875 28.796875 -10.6875 C 28.953125 -10.84375 29.03125 -11.078125 29.03125 -11.390625 C 29.238281 -11.804688 29.222656 -12.328125 28.984375 -12.953125 C 28.753906 -13.578125 28.5625 -14.046875 28.40625 -14.359375 C 28.351562 -14.566406 28.273438 -14.773438 28.171875 -14.984375 C 28.066406 -15.191406 27.960938 -15.398438 27.859375 -15.609375 C 27.492188 -16.078125 27.128906 -16.546875 26.765625 -17.015625 C 26.398438 -17.484375 26.007812 -17.953125 25.59375 -18.421875 C 24.394531 -19.878906 23.171875 -21.304688 21.921875 -22.703125 C 20.679688 -24.109375 19.382812 -25.488281 18.03125 -26.84375 C 17.507812 -27.414062 16.988281 -27.988281 16.46875 -28.5625 C 15.945312 -29.132812 15.398438 -29.679688 14.828125 -30.203125 L 13.65625 -31.140625 C 11.832031 -32.648438 10.085938 -34.222656 8.421875 -35.859375 C 6.765625 -37.503906 5.207031 -39.257812 3.75 -41.125 C 3.070312 -42.113281 2.457031 -43.164062 1.90625 -44.28125 C 1.363281 -45.40625 1.25 -46.617188 1.5625 -47.921875 C 1.875 -49.222656 2.550781 -50.238281 3.59375 -50.96875 C 4.632812 -51.695312 5.804688 -52.007812 7.109375 -51.90625 C 7.984375 -51.851562 8.835938 -51.707031 9.671875 -51.46875 C 10.503906 -51.238281 11.335938 -50.992188 12.171875 -50.734375 C 12.535156 -50.835938 12.925781 -50.8125 13.34375 -50.65625 C 15.476562 -50.03125 17.507812 -49.273438 19.4375 -48.390625 C 21.363281 -47.503906 23.234375 -46.460938 25.046875 -45.265625 C 25.929688 -44.742188 26.789062 -44.179688 27.625 -43.578125 C 28.457031 -42.984375 29.265625 -42.320312 30.046875 -41.59375 L 30.4375 -41.203125 C 30.4375 -41.878906 30.4375 -42.539062 30.4375 -43.1875 C 30.4375 -43.84375 30.410156 -44.507812 30.359375 -45.1875 C 30.359375 -46.226562 30.75 -47.125 31.53125 -47.875 C 32.3125 -48.632812 33.195312 -49.015625 34.1875 -49.015625 C 35.332031 -49.015625 36.226562 -48.632812 36.875 -47.875 C 37.53125 -47.125 37.910156 -46.226562 38.015625 -45.1875 C 38.273438 -43.363281 38.273438 -41.503906 38.015625 -39.609375 C 37.753906 -37.710938 37.546875 -35.851562 37.390625 -34.03125 C 37.335938 -32.101562 37.335938 -30.203125 37.390625 -28.328125 Z M 37.390625 -28.328125 "/></g></g></g><g fill="#692e54" fill-opacity="1"><g transform="translate(40.640884, 63.595773)"><g><path d="M 39.796875 -3.046875 C 39.742188 -2.992188 39.703125 -3.019531 39.671875 -3.125 C 39.648438 -3.226562 39.664062 -3.304688 39.71875 -3.359375 C 40.34375 -3.617188 40.707031 -4.085938 40.8125 -4.765625 C 40.914062 -5.441406 40.863281 -6.191406 40.65625 -7.015625 C 40.445312 -7.847656 40.195312 -8.640625 39.90625 -9.390625 C 39.625 -10.148438 39.40625 -10.710938 39.25 -11.078125 C 38.113281 -14.253906 36.6875 -17.234375 34.96875 -20.015625 C 33.25 -22.796875 31.242188 -25.4375 28.953125 -27.9375 C 29.523438 -27.207031 30.265625 -26.128906 31.171875 -24.703125 C 32.085938 -23.273438 33.039062 -21.6875 34.03125 -19.9375 C 35.019531 -18.195312 35.957031 -16.425781 36.84375 -14.625 C 37.726562 -12.832031 38.46875 -11.171875 39.0625 -9.640625 C 39.65625 -8.109375 39.976562 -6.898438 40.03125 -6.015625 C 40.132812 -4.972656 39.847656 -4.019531 39.171875 -3.15625 C 38.503906 -2.300781 37.570312 -1.875 36.375 -1.875 C 34.707031 -1.875 33.535156 -2.601562 32.859375 -4.0625 C 32.492188 -4.738281 32.3125 -5.46875 32.3125 -6.25 C 30.851562 -9.15625 29.132812 -11.9375 27.15625 -14.59375 C 25.175781 -17.25 23.125 -19.75 21 -22.09375 C 20.0625 -23.125 19.109375 -24.144531 18.140625 -25.15625 C 17.179688 -26.175781 16.128906 -27.101562 14.984375 -27.9375 L 13.734375 -27.46875 C 13.367188 -27.3125 13.03125 -27.164062 12.71875 -27.03125 C 12.40625 -26.90625 12.117188 -26.789062 11.859375 -26.6875 C 12.273438 -22.320312 12.742188 -17.976562 13.265625 -13.65625 C 13.367188 -12.820312 13.507812 -11.972656 13.6875 -11.109375 C 13.875 -10.253906 14.046875 -9.382812 14.203125 -8.5 C 14.410156 -7.78125 14.65625 -6.988281 14.9375 -6.125 C 15.226562 -5.269531 15.453125 -4.398438 15.609375 -3.515625 C 15.710938 -3.203125 15.722656 -2.875 15.640625 -2.53125 C 15.566406 -2.195312 15.398438 -1.898438 15.140625 -1.640625 C 13.160156 0.0234375 11.023438 0.441406 8.734375 -0.390625 C 7.859375 -0.285156 7.003906 -0.476562 6.171875 -0.96875 C 5.335938 -1.46875 4.710938 -2.132812 4.296875 -2.96875 C 3.828125 -4.0625 3.539062 -5.191406 3.4375 -6.359375 C 3.332031 -7.523438 3.226562 -8.679688 3.125 -9.828125 C 2.8125 -12.484375 2.507812 -15.140625 2.21875 -17.796875 C 1.9375 -20.453125 1.691406 -23.101562 1.484375 -25.75 C 1.273438 -28.40625 1.101562 -31.0625 0.96875 -33.71875 C 0.84375 -36.375 0.726562 -39.050781 0.625 -41.75 C 0.625 -42.476562 0.609375 -43.191406 0.578125 -43.890625 C 0.554688 -44.597656 0.546875 -45.289062 0.546875 -45.96875 C 0.492188 -46.695312 0.554688 -47.4375 0.734375 -48.1875 C 0.921875 -48.945312 1.429688 -49.429688 2.265625 -49.640625 C 2.316406 -49.796875 2.378906 -49.9375 2.453125 -50.0625 C 2.535156 -50.195312 2.601562 -50.34375 2.65625 -50.5 C 3.175781 -51.4375 3.890625 -52.019531 4.796875 -52.25 C 5.710938 -52.488281 6.609375 -52.425781 7.484375 -52.0625 C 8.367188 -51.695312 9.046875 -51.109375 9.515625 -50.296875 C 9.984375 -49.492188 10.035156 -48.570312 9.671875 -47.53125 C 9.460938 -46.75 9.34375 -45.898438 9.3125 -44.984375 C 9.289062 -44.078125 9.253906 -43.179688 9.203125 -42.296875 L 8.96875 -35.28125 C 9.226562 -35.539062 9.4375 -35.695312 9.59375 -35.75 C 9.75 -37.414062 9.929688 -39.078125 10.140625 -40.734375 C 10.347656 -42.398438 10.582031 -44.039062 10.84375 -45.65625 C 10.84375 -45.707031 10.851562 -45.71875 10.875 -45.6875 C 10.90625 -45.664062 10.921875 -45.65625 10.921875 -45.65625 L 10.921875 -45.109375 C 10.972656 -43.648438 11.023438 -42.21875 11.078125 -40.8125 C 11.128906 -39.414062 11.179688 -37.988281 11.234375 -36.53125 C 14.460938 -37.9375 17.882812 -39.519531 21.5 -41.28125 C 25.113281 -43.050781 28.429688 -44.820312 31.453125 -46.59375 C 32.078125 -46.957031 32.789062 -47.382812 33.59375 -47.875 C 34.40625 -48.375 35.203125 -48.492188 35.984375 -48.234375 C 36.609375 -48.078125 37.078125 -47.738281 37.390625 -47.21875 C 37.703125 -46.695312 37.859375 -46.125 37.859375 -45.5 L 38.09375 -45.734375 C 38.507812 -46.046875 38.910156 -46.046875 39.296875 -45.734375 C 39.679688 -45.421875 39.742188 -45.03125 39.484375 -44.5625 C 38.140625 -42.007812 36.28125 -39.875 33.90625 -38.15625 C 31.539062 -36.445312 29.109375 -34.890625 26.609375 -33.484375 L 24.578125 -32.390625 C 24.785156 -32.234375 24.96875 -32.078125 25.125 -31.921875 C 25.28125 -31.765625 25.460938 -31.609375 25.671875 -31.453125 C 25.617188 -31.710938 25.75 -31.945312 26.0625 -32.15625 C 26.375 -32.363281 26.632812 -32.335938 26.84375 -32.078125 C 29.238281 -29.835938 31.375 -27.40625 33.25 -24.78125 C 35.125 -22.15625 36.710938 -19.359375 38.015625 -16.390625 C 38.679688 -14.929688 39.273438 -13.457031 39.796875 -11.96875 C 40.316406 -10.488281 40.757812 -9 41.125 -7.5 C 41.28125 -6.71875 41.332031 -5.84375 41.28125 -4.875 C 41.226562 -3.914062 40.734375 -3.304688 39.796875 -3.046875 Z M 39.796875 -3.046875 "/></g></g></g><g fill="#692e54" fill-opacity="1"><g transform="translate(79.659572, 63.595773)"><g><path d="M 28.5625 -2.34375 C 28.25 -2.445312 27.894531 -2.992188 27.5 -3.984375 C 27.113281 -4.972656 26.695312 -6.191406 26.25 -7.640625 C 25.8125 -9.097656 25.394531 -10.609375 25 -12.171875 C 24.613281 -13.734375 24.265625 -15.140625 23.953125 -16.390625 C 23.640625 -17.640625 23.4375 -18.550781 23.34375 -19.125 L 17.25 -19.046875 C 16.675781 -16.703125 16.179688 -14.367188 15.765625 -12.046875 C 15.347656 -9.734375 15.035156 -7.382812 14.828125 -5 C 14.828125 -4.53125 14.601562 -4.296875 14.15625 -4.296875 C 13.71875 -4.296875 13.523438 -4.53125 13.578125 -5 C 13.785156 -7.332031 14.082031 -9.679688 14.46875 -12.046875 C 14.863281 -14.421875 15.425781 -16.753906 16.15625 -19.046875 L 15.453125 -19.046875 C 15.191406 -18.109375 14.929688 -16.972656 14.671875 -15.640625 C 14.410156 -14.316406 14.160156 -13.015625 13.921875 -11.734375 C 13.691406 -10.460938 13.5 -9.398438 13.34375 -8.546875 C 13.1875 -7.691406 13.109375 -7.265625 13.109375 -7.265625 L 12.640625 -3.75 C 12.484375 -1.976562 11.882812 -0.703125 10.84375 0.078125 C 9.800781 0.859375 8.65625 1.171875 7.40625 1.015625 C 6.164062 0.859375 5.113281 0.257812 4.25 -0.78125 C 3.394531 -1.820312 3.097656 -3.253906 3.359375 -5.078125 C 3.671875 -7.359375 4.035156 -9.644531 4.453125 -11.9375 C 4.867188 -14.226562 5.363281 -16.492188 5.9375 -18.734375 C 5.570312 -18.679688 5.207031 -18.640625 4.84375 -18.609375 C 4.476562 -18.585938 4.140625 -18.578125 3.828125 -18.578125 C 3.929688 -18.835938 3.957031 -19.070312 3.90625 -19.28125 C 2.65625 -19.59375 1.742188 -20.269531 1.171875 -21.3125 C 0.597656 -22.351562 0.441406 -23.507812 0.703125 -24.78125 C 0.960938 -26.050781 1.691406 -27.21875 2.890625 -28.28125 C 4.085938 -29.351562 5.851562 -30.070312 8.1875 -30.4375 C 8.757812 -33.039062 9.382812 -35.601562 10.0625 -38.125 C 10.738281 -40.644531 11.570312 -43.101562 12.5625 -45.5 C 13.03125 -46.539062 13.550781 -47.671875 14.125 -48.890625 C 14.695312 -50.117188 15.410156 -51.1875 16.265625 -52.09375 C 17.128906 -53.007812 18.210938 -53.46875 19.515625 -53.46875 C 20.191406 -53.519531 20.867188 -53.335938 21.546875 -52.921875 C 22.222656 -52.503906 22.71875 -51.984375 23.03125 -51.359375 C 24.164062 -51.304688 25.109375 -50.898438 25.859375 -50.140625 C 26.617188 -49.390625 27.050781 -48.390625 27.15625 -47.140625 C 27.257812 -45.578125 27.390625 -44 27.546875 -42.40625 C 27.703125 -40.820312 27.859375 -39.28125 28.015625 -37.78125 C 28.066406 -37.726562 28.117188 -37.703125 28.171875 -37.703125 C 28.222656 -39.046875 28.285156 -40.378906 28.359375 -41.703125 C 28.441406 -43.035156 28.5625 -44.351562 28.71875 -45.65625 C 28.71875 -45.863281 28.753906 -45.394531 28.828125 -44.25 C 28.910156 -43.101562 29.003906 -41.632812 29.109375 -39.84375 C 29.210938 -38.050781 29.316406 -36.253906 29.421875 -34.453125 C 29.523438 -32.660156 29.65625 -31.164062 29.8125 -29.96875 C 31.320312 -29.8125 32.492188 -29.300781 33.328125 -28.4375 C 34.160156 -27.582031 34.679688 -26.59375 34.890625 -25.46875 C 35.097656 -24.351562 34.992188 -23.25 34.578125 -22.15625 C 34.160156 -21.070312 33.40625 -20.191406 32.3125 -19.515625 C 32.832031 -17.222656 33.378906 -14.632812 33.953125 -11.75 C 34.523438 -8.863281 34.96875 -6.25 35.28125 -3.90625 C 35.488281 -2.132812 35.34375 -0.796875 34.84375 0.109375 C 34.351562 1.023438 33.703125 1.535156 32.890625 1.640625 C 32.085938 1.742188 31.28125 1.457031 30.46875 0.78125 C 29.664062 0.101562 29.03125 -0.9375 28.5625 -2.34375 Z M 17.015625 -29.1875 C 17.585938 -29.289062 18.328125 -29.351562 19.234375 -29.375 C 20.148438 -29.40625 20.867188 -29.445312 21.390625 -29.5 C 21.285156 -30.175781 21.164062 -31.140625 21.03125 -32.390625 C 20.90625 -33.640625 20.75 -34.976562 20.5625 -36.40625 C 20.382812 -37.84375 20.164062 -39.15625 19.90625 -40.34375 C 19.28125 -38.164062 18.734375 -36.21875 18.265625 -34.5 C 17.796875 -32.78125 17.378906 -31.007812 17.015625 -29.1875 Z M 17.015625 -29.1875 "/></g></g></g><g fill="#692e54" fill-opacity="1"><g transform="translate(116.259103, 63.595773)"><g><path d="M 44.5625 -45.96875 C 44.457031 -45.65625 44.351562 -45.394531 44.25 -45.1875 C 44.195312 -44.507812 44.066406 -43.832031 43.859375 -43.15625 C 43.648438 -42.476562 43.234375 -41.929688 42.609375 -41.515625 C 42.347656 -41.304688 41.957031 -41.148438 41.4375 -41.046875 C 41.226562 -40.835938 41.046875 -40.734375 40.890625 -40.734375 C 38.921875 -40.367188 36.945312 -40.003906 34.96875 -39.640625 C 32.988281 -39.273438 31.007812 -38.96875 29.03125 -38.71875 C 29.03125 -37 29.015625 -35.28125 28.984375 -33.5625 C 28.960938 -31.84375 28.953125 -30.125 28.953125 -28.40625 C 28.953125 -26.007812 28.960938 -23.628906 28.984375 -21.265625 C 29.015625 -18.898438 29.03125 -16.519531 29.03125 -14.125 C 29.082031 -12.769531 29.132812 -11.398438 29.1875 -10.015625 C 29.238281 -8.640625 29.289062 -7.28125 29.34375 -5.9375 C 29.289062 -5 29.144531 -4.097656 28.90625 -3.234375 C 28.675781 -2.378906 28.195312 -1.664062 27.46875 -1.09375 L 27.46875 -1.25 C 27.519531 -1.820312 27.546875 -2.378906 27.546875 -2.921875 C 27.546875 -3.472656 27.570312 -4.007812 27.625 -4.53125 L 27.625 -7.5 C 27.46875 -6.820312 27.335938 -5.988281 27.234375 -5 C 27.128906 -4.007812 26.945312 -3.125 26.6875 -2.34375 C 26.425781 -1.507812 25.878906 -0.882812 25.046875 -0.46875 C 24.210938 -0.0507812 23.382812 0.0507812 22.5625 -0.15625 C 20.945312 -0.675781 19.878906 -1.703125 19.359375 -3.234375 C 18.835938 -4.773438 18.523438 -6.296875 18.421875 -7.796875 C 18.316406 -9.773438 18.273438 -11.78125 18.296875 -13.8125 C 18.328125 -15.84375 18.367188 -17.847656 18.421875 -19.828125 C 18.523438 -21.804688 18.640625 -23.804688 18.765625 -25.828125 C 18.898438 -27.859375 18.992188 -29.890625 19.046875 -31.921875 L 19.203125 -35.359375 L 19.203125 -37.859375 C 18.679688 -37.859375 18.171875 -37.859375 17.671875 -37.859375 C 17.179688 -37.859375 16.675781 -37.859375 16.15625 -37.859375 C 14.019531 -37.859375 11.9375 -37.9375 9.90625 -38.09375 C 9.070312 -38.195312 8.253906 -38.335938 7.453125 -38.515625 C 6.648438 -38.703125 5.882812 -39 5.15625 -39.40625 C 4.632812 -39.769531 4.148438 -40.210938 3.703125 -40.734375 C 3.265625 -41.253906 2.914062 -41.828125 2.65625 -42.453125 C 1.875 -42.867188 1.285156 -43.503906 0.890625 -44.359375 C 0.503906 -45.222656 0.414062 -46.125 0.625 -47.0625 C 0.882812 -47.84375 1.363281 -48.546875 2.0625 -49.171875 C 2.769531 -49.796875 3.539062 -50.054688 4.375 -49.953125 C 6.507812 -49.742188 8.640625 -49.570312 10.765625 -49.4375 C 12.898438 -49.3125 15.035156 -49.25 17.171875 -49.25 C 17.171875 -49.300781 17.179688 -49.335938 17.203125 -49.359375 C 17.234375 -49.390625 17.25 -49.429688 17.25 -49.484375 C 13.03125 -49.742188 8.816406 -50.210938 4.609375 -50.890625 C 4.503906 -50.890625 4.460938 -50.96875 4.484375 -51.125 C 4.515625 -51.28125 4.582031 -51.332031 4.6875 -51.28125 C 10.144531 -50.96875 15.601562 -50.863281 21.0625 -50.96875 C 26.53125 -51.070312 31.972656 -51.359375 37.390625 -51.828125 C 37.804688 -51.929688 38.21875 -51.992188 38.625 -52.015625 C 39.039062 -52.046875 39.429688 -52.085938 39.796875 -52.140625 C 40.003906 -52.140625 40.222656 -52.148438 40.453125 -52.171875 C 40.691406 -52.203125 40.914062 -52.191406 41.125 -52.140625 C 41.695312 -52.242188 42.28125 -52.320312 42.875 -52.375 C 43.476562 -52.425781 44.066406 -52.476562 44.640625 -52.53125 C 45.003906 -52.582031 45.222656 -52.382812 45.296875 -51.9375 C 45.378906 -51.5 45.210938 -51.226562 44.796875 -51.125 C 44.535156 -51.125 44.351562 -51.097656 44.25 -51.046875 C 44.457031 -50.941406 44.613281 -50.835938 44.71875 -50.734375 C 45.601562 -50.210938 46.03125 -49.390625 46 -48.265625 C 45.976562 -47.148438 45.5 -46.382812 44.5625 -45.96875 Z M 9.90625 -39.953125 C 11.257812 -39.847656 12.640625 -39.847656 14.046875 -39.953125 C 12.484375 -40.109375 10.921875 -40.328125 9.359375 -40.609375 C 7.804688 -40.898438 6.273438 -41.28125 4.765625 -41.75 C 5.390625 -41.175781 6.164062 -40.742188 7.09375 -40.453125 C 8.03125 -40.171875 8.96875 -40.003906 9.90625 -39.953125 Z M 9.90625 -39.953125 "/></g></g></g><g fill="#692e54" fill-opacity="1"><g transform="translate(161.520791, 63.595773)"><g><path d="M 1.796875 -41.203125 C 4.398438 -42.554688 7.101562 -43.703125 9.90625 -44.640625 C 12.71875 -45.578125 15.53125 -46.410156 18.34375 -47.140625 L 20.140625 -47.609375 C 21.753906 -47.921875 23.363281 -48.21875 24.96875 -48.5 C 26.582031 -48.789062 28.222656 -48.988281 29.890625 -49.09375 C 30.253906 -49.144531 30.601562 -49.171875 30.9375 -49.171875 C 31.28125 -49.171875 31.632812 -49.171875 32 -49.171875 C 30.488281 -48.804688 28.953125 -48.425781 27.390625 -48.03125 C 25.828125 -47.644531 24.296875 -47.269531 22.796875 -46.90625 C 20.140625 -46.332031 17.492188 -45.71875 14.859375 -45.0625 C 12.234375 -44.414062 9.625 -43.648438 7.03125 -42.765625 C 6.144531 -42.503906 5.269531 -42.203125 4.40625 -41.859375 C 3.550781 -41.523438 2.679688 -41.148438 1.796875 -40.734375 C 1.585938 -40.835938 1.585938 -40.992188 1.796875 -41.203125 Z M 45.578125 -9.4375 C 45.472656 -8.96875 45.210938 -8.707031 44.796875 -8.65625 C 41.929688 -8.132812 39.054688 -7.5 36.171875 -6.75 C 33.285156 -6 30.460938 -5.128906 27.703125 -4.140625 C 26.398438 -3.671875 25.085938 -3.203125 23.765625 -2.734375 C 22.441406 -2.265625 21.128906 -1.742188 19.828125 -1.171875 L 19.75 -1.171875 C 19.695312 -1.117188 19.617188 -1.078125 19.515625 -1.046875 C 19.410156 -1.023438 19.304688 -0.988281 19.203125 -0.9375 C 18.785156 -0.726562 18.351562 -0.546875 17.90625 -0.390625 C 17.46875 -0.234375 17.039062 -0.0507812 16.625 0.15625 L 16.546875 0.234375 C 16.234375 0.441406 15.644531 0.703125 14.78125 1.015625 C 13.925781 1.328125 13.117188 1.585938 12.359375 1.796875 C 11.609375 2.003906 11.234375 2.109375 11.234375 2.109375 C 11.234375 2.109375 11.140625 2.117188 10.953125 2.140625 C 10.773438 2.171875 10.609375 2.1875 10.453125 2.1875 C 9.828125 2.289062 9.203125 2.289062 8.578125 2.1875 C 7.960938 2.082031 7.5 1.691406 7.1875 1.015625 C 7.03125 0.703125 7.003906 0.335938 7.109375 -0.078125 C 6.117188 -0.492188 5.347656 -1.207031 4.796875 -2.21875 C 4.253906 -3.238281 4.164062 -4.242188 4.53125 -5.234375 C 4.320312 -6.585938 4.148438 -7.953125 4.015625 -9.328125 C 3.890625 -10.703125 3.773438 -12.066406 3.671875 -13.421875 L 2.734375 -22.796875 L 1.796875 -31.6875 C 0.804688 -32.78125 0.390625 -34.054688 0.546875 -35.515625 C 0.703125 -36.972656 1.351562 -38.191406 2.5 -39.171875 C 2.550781 -39.273438 2.601562 -39.378906 2.65625 -39.484375 C 2.707031 -39.585938 2.757812 -39.691406 2.8125 -39.796875 C 3.644531 -40.160156 4.476562 -40.5 5.3125 -40.8125 C 6.144531 -41.125 6.972656 -41.410156 7.796875 -41.671875 C 10.398438 -42.554688 13.015625 -43.320312 15.640625 -43.96875 C 18.273438 -44.625 20.914062 -45.210938 23.5625 -45.734375 C 25.644531 -46.203125 27.703125 -46.707031 29.734375 -47.25 C 31.765625 -47.800781 33.796875 -48.335938 35.828125 -48.859375 C 36.085938 -48.804688 36.359375 -48.765625 36.640625 -48.734375 C 36.929688 -48.710938 37.179688 -48.648438 37.390625 -48.546875 L 38.640625 -48.078125 C 38.847656 -47.921875 39.050781 -47.75 39.25 -47.5625 C 39.457031 -47.382812 39.664062 -47.21875 39.875 -47.0625 C 40.132812 -46.226562 40.316406 -45.40625 40.421875 -44.59375 C 40.523438 -43.789062 40.5 -43 40.34375 -42.21875 L 36.453125 -41.046875 C 35.617188 -40.785156 34.742188 -40.523438 33.828125 -40.265625 C 32.921875 -40.003906 32.023438 -39.742188 31.140625 -39.484375 C 30.929688 -39.378906 30.773438 -39.328125 30.671875 -39.328125 C 29.679688 -39.078125 28.519531 -38.753906 27.1875 -38.359375 C 25.863281 -37.972656 24.539062 -37.582031 23.21875 -37.1875 C 21.894531 -36.800781 20.765625 -36.453125 19.828125 -36.140625 C 18.890625 -35.828125 18.316406 -35.617188 18.109375 -35.515625 C 16.859375 -35.097656 15.609375 -34.65625 14.359375 -34.1875 C 13.109375 -33.71875 11.882812 -33.222656 10.6875 -32.703125 L 10.53125 -32.546875 C 10.582031 -32.285156 10.644531 -31.851562 10.71875 -31.25 C 10.800781 -30.65625 10.878906 -30.097656 10.953125 -29.578125 C 11.035156 -29.054688 11.078125 -28.71875 11.078125 -28.5625 C 13.265625 -29.5 15.4375 -30.421875 17.59375 -31.328125 C 19.757812 -32.242188 21.957031 -33.117188 24.1875 -33.953125 C 25.4375 -34.265625 26.695312 -34.585938 27.96875 -34.921875 C 29.25 -35.265625 30.515625 -35.617188 31.765625 -35.984375 L 32.78125 -36.21875 C 33.25 -36.320312 33.703125 -36.382812 34.140625 -36.40625 C 34.585938 -36.4375 35.046875 -36.476562 35.515625 -36.53125 C 36.503906 -36.582031 37.4375 -36.515625 38.3125 -36.328125 C 39.195312 -36.148438 39.898438 -35.59375 40.421875 -34.65625 C 40.523438 -34.550781 40.585938 -34.445312 40.609375 -34.34375 C 40.640625 -34.238281 40.679688 -34.132812 40.734375 -34.03125 C 40.835938 -33.875 40.914062 -33.71875 40.96875 -33.5625 C 41.019531 -33.40625 41.070312 -33.25 41.125 -33.09375 C 41.175781 -33.039062 41.226562 -33.015625 41.28125 -33.015625 C 42.007812 -32.648438 42.453125 -32 42.609375 -31.0625 C 42.765625 -30.332031 42.644531 -29.585938 42.25 -28.828125 C 41.863281 -28.078125 41.304688 -27.519531 40.578125 -27.15625 C 39.742188 -26.789062 38.898438 -26.566406 38.046875 -26.484375 C 37.191406 -26.410156 36.320312 -26.269531 35.4375 -26.0625 C 34.5 -25.90625 33.546875 -25.734375 32.578125 -25.546875 C 31.617188 -25.367188 30.671875 -25.148438 29.734375 -24.890625 C 27.859375 -24.367188 26 -23.8125 24.15625 -23.21875 C 22.3125 -22.625 20.476562 -21.9375 18.65625 -21.15625 C 17.507812 -20.6875 16.398438 -20.191406 15.328125 -19.671875 C 14.265625 -19.148438 13.1875 -18.601562 12.09375 -18.03125 L 12.5625 -12.953125 C 12.5625 -12.898438 12.5625 -12.859375 12.5625 -12.828125 C 12.5625 -12.804688 12.5625 -12.742188 12.5625 -12.640625 L 12.796875 -12.796875 C 13.679688 -13.210938 14.550781 -13.585938 15.40625 -13.921875 C 16.269531 -14.265625 17.117188 -14.617188 17.953125 -14.984375 L 24.578125 -17.5625 C 25.148438 -17.820312 25.734375 -18.054688 26.328125 -18.265625 C 26.929688 -18.472656 27.519531 -18.679688 28.09375 -18.890625 C 29.03125 -19.253906 29.96875 -19.601562 30.90625 -19.9375 C 31.84375 -20.28125 32.78125 -20.609375 33.71875 -20.921875 L 36.765625 -21.859375 C 37.179688 -21.960938 37.597656 -22.101562 38.015625 -22.28125 C 38.429688 -22.46875 38.84375 -22.613281 39.25 -22.71875 C 40.757812 -23.03125 41.992188 -22.898438 42.953125 -22.328125 C 43.921875 -21.753906 44.691406 -20.921875 45.265625 -19.828125 C 45.835938 -18.734375 46.265625 -17.535156 46.546875 -16.234375 C 46.835938 -14.929688 47.007812 -13.734375 47.0625 -12.640625 C 47.113281 -11.960938 46.992188 -11.347656 46.703125 -10.796875 C 46.421875 -10.253906 46.046875 -9.800781 45.578125 -9.4375 Z M 26.6875 -25.984375 C 25.488281 -25.617188 24.28125 -25.253906 23.0625 -24.890625 C 21.84375 -24.523438 20.632812 -24.132812 19.4375 -23.71875 C 18.65625 -23.507812 17.882812 -23.289062 17.125 -23.0625 C 16.375 -22.832031 15.632812 -22.613281 14.90625 -22.40625 C 14.75 -21.519531 14.332031 -20.789062 13.65625 -20.21875 C 15.582031 -21.207031 17.546875 -22.085938 19.546875 -22.859375 C 21.554688 -23.640625 23.519531 -24.421875 25.4375 -25.203125 C 25.851562 -25.410156 26.296875 -25.59375 26.765625 -25.75 Z M 9.4375 1.015625 C 10.007812 1.066406 10.660156 1.078125 11.390625 1.046875 C 12.117188 1.023438 12.535156 0.988281 12.640625 0.9375 C 12.742188 0.9375 12.820312 0.910156 12.875 0.859375 C 13.1875 0.703125 13.5 0.546875 13.8125 0.390625 C 14.125 0.234375 14.410156 0.078125 14.671875 -0.078125 C 15.296875 -0.390625 15.90625 -0.703125 16.5 -1.015625 C 17.101562 -1.328125 17.691406 -1.640625 18.265625 -1.953125 L 18.265625 -2.109375 C 17.585938 -1.847656 16.882812 -1.585938 16.15625 -1.328125 C 15.425781 -1.066406 14.695312 -0.804688 13.96875 -0.546875 C 13.238281 -0.285156 12.492188 -0.015625 11.734375 0.265625 C 10.984375 0.554688 10.21875 0.804688 9.4375 1.015625 Z M 9.4375 1.015625 "/></g></g></g><g fill="#692e54" fill-opacity="1"><g transform="translate(208.343218, 63.595773)"><g><path d="M 37.390625 -28.328125 C 37.441406 -27.648438 37.53125 -27.007812 37.65625 -26.40625 C 37.789062 -25.8125 37.910156 -25.175781 38.015625 -24.5 C 38.171875 -23.976562 38.117188 -23.472656 37.859375 -22.984375 C 37.597656 -22.492188 37.179688 -22.171875 36.609375 -22.015625 C 35.359375 -21.703125 34.34375 -21.957031 33.5625 -22.78125 C 32.78125 -23.613281 32.191406 -24.707031 31.796875 -26.0625 C 31.410156 -27.414062 31.140625 -28.691406 30.984375 -29.890625 C 30.929688 -29.890625 30.90625 -29.898438 30.90625 -29.921875 C 30.90625 -29.953125 30.878906 -29.96875 30.828125 -29.96875 C 29.679688 -31.632812 28.285156 -33.09375 26.640625 -34.34375 C 25.003906 -35.59375 23.253906 -36.632812 21.390625 -37.46875 C 19.410156 -38.351562 17.378906 -39.023438 15.296875 -39.484375 L 18.5 -36.453125 C 19.75 -35.253906 20.992188 -34.03125 22.234375 -32.78125 C 23.484375 -31.53125 24.679688 -30.253906 25.828125 -28.953125 C 26.972656 -27.753906 28.117188 -26.539062 29.265625 -25.3125 C 30.410156 -24.09375 31.476562 -22.835938 32.46875 -21.546875 C 33.195312 -20.660156 33.820312 -19.722656 34.34375 -18.734375 C 34.863281 -17.742188 35.226562 -16.726562 35.4375 -15.6875 C 35.851562 -14.695312 36.164062 -13.691406 36.375 -12.671875 C 36.582031 -11.660156 36.609375 -10.632812 36.453125 -9.59375 C 36.398438 -7.9375 35.851562 -6.441406 34.8125 -5.109375 C 33.769531 -3.785156 32.46875 -2.734375 30.90625 -1.953125 C 29.34375 -1.171875 27.726562 -0.726562 26.0625 -0.625 L 25.828125 -0.625 C 24.523438 -0.414062 23.160156 -0.375 21.734375 -0.5 C 20.304688 -0.632812 18.96875 -0.882812 17.71875 -1.25 C 16 -1.613281 14.382812 -2.289062 12.875 -3.28125 C 12.71875 -2.601562 12.492188 -1.960938 12.203125 -1.359375 C 11.921875 -0.765625 11.519531 -0.257812 11 0.15625 C 10.632812 0.519531 10.175781 0.703125 9.625 0.703125 C 9.082031 0.703125 8.601562 0.519531 8.1875 0.15625 C 7.78125 -0.257812 7.394531 -0.789062 7.03125 -1.4375 C 6.664062 -2.09375 6.429688 -2.757812 6.328125 -3.4375 C 6.117188 -3.695312 5.945312 -4.007812 5.8125 -4.375 C 5.6875 -4.738281 5.570312 -5.101562 5.46875 -5.46875 C 5.257812 -7.644531 4.929688 -9.828125 4.484375 -12.015625 C 4.046875 -14.203125 3.539062 -16.363281 2.96875 -18.5 C 2.65625 -19.695312 2.40625 -20.914062 2.21875 -22.15625 C 2.039062 -23.40625 1.875 -24.65625 1.71875 -25.90625 C 1.5625 -27 1.414062 -28.128906 1.28125 -29.296875 C 1.15625 -30.472656 1.195312 -31.632812 1.40625 -32.78125 C 1.5625 -33.507812 1.910156 -34.1875 2.453125 -34.8125 C 3.003906 -35.4375 3.671875 -35.800781 4.453125 -35.90625 C 5.390625 -36.007812 6.21875 -35.878906 6.9375 -35.515625 C 7.664062 -35.148438 8.1875 -34.5 8.5 -33.5625 C 9.332031 -31.007812 9.929688 -28.378906 10.296875 -25.671875 C 10.660156 -22.972656 11.285156 -20.320312 12.171875 -17.71875 C 12.535156 -16.78125 12.960938 -15.84375 13.453125 -14.90625 C 13.953125 -13.96875 14.539062 -13.132812 15.21875 -12.40625 C 15.632812 -12.039062 16.050781 -11.648438 16.46875 -11.234375 C 16.882812 -10.816406 17.328125 -10.425781 17.796875 -10.0625 C 18.265625 -9.90625 18.734375 -9.785156 19.203125 -9.703125 C 19.671875 -9.628906 20.140625 -9.566406 20.609375 -9.515625 C 22.222656 -9.359375 23.882812 -9.359375 25.59375 -9.515625 C 26.113281 -9.566406 26.695312 -9.65625 27.34375 -9.78125 C 28 -9.914062 28.484375 -10.21875 28.796875 -10.6875 C 28.953125 -10.84375 29.03125 -11.078125 29.03125 -11.390625 C 29.238281 -11.804688 29.222656 -12.328125 28.984375 -12.953125 C 28.753906 -13.578125 28.5625 -14.046875 28.40625 -14.359375 C 28.351562 -14.566406 28.273438 -14.773438 28.171875 -14.984375 C 28.066406 -15.191406 27.960938 -15.398438 27.859375 -15.609375 C 27.492188 -16.078125 27.128906 -16.546875 26.765625 -17.015625 C 26.398438 -17.484375 26.007812 -17.953125 25.59375 -18.421875 C 24.394531 -19.878906 23.171875 -21.304688 21.921875 -22.703125 C 20.679688 -24.109375 19.382812 -25.488281 18.03125 -26.84375 C 17.507812 -27.414062 16.988281 -27.988281 16.46875 -28.5625 C 15.945312 -29.132812 15.398438 -29.679688 14.828125 -30.203125 L 13.65625 -31.140625 C 11.832031 -32.648438 10.085938 -34.222656 8.421875 -35.859375 C 6.765625 -37.503906 5.207031 -39.257812 3.75 -41.125 C 3.070312 -42.113281 2.457031 -43.164062 1.90625 -44.28125 C 1.363281 -45.40625 1.25 -46.617188 1.5625 -47.921875 C 1.875 -49.222656 2.550781 -50.238281 3.59375 -50.96875 C 4.632812 -51.695312 5.804688 -52.007812 7.109375 -51.90625 C 7.984375 -51.851562 8.835938 -51.707031 9.671875 -51.46875 C 10.503906 -51.238281 11.335938 -50.992188 12.171875 -50.734375 C 12.535156 -50.835938 12.925781 -50.8125 13.34375 -50.65625 C 15.476562 -50.03125 17.507812 -49.273438 19.4375 -48.390625 C 21.363281 -47.503906 23.234375 -46.460938 25.046875 -45.265625 C 25.929688 -44.742188 26.789062 -44.179688 27.625 -43.578125 C 28.457031 -42.984375 29.265625 -42.320312 30.046875 -41.59375 L 30.4375 -41.203125 C 30.4375 -41.878906 30.4375 -42.539062 30.4375 -43.1875 C 30.4375 -43.84375 30.410156 -44.507812 30.359375 -45.1875 C 30.359375 -46.226562 30.75 -47.125 31.53125 -47.875 C 32.3125 -48.632812 33.195312 -49.015625 34.1875 -49.015625 C 35.332031 -49.015625 36.226562 -48.632812 36.875 -47.875 C 37.53125 -47.125 37.910156 -46.226562 38.015625 -45.1875 C 38.273438 -43.363281 38.273438 -41.503906 38.015625 -39.609375 C 37.753906 -37.710938 37.546875 -35.851562 37.390625 -34.03125 C 37.335938 -32.101562 37.335938 -30.203125 37.390625 -28.328125 Z M 37.390625 -28.328125 "/></g></g></g></g></g></svg>